<svg width="708" height="752" viewBox="0 0 708 752" fill="none" xmlns="http://www.w3.org/2000/svg">
<path d="M302 376C302 369.333 290 364.667 266 362C243.333 359.333 222 357.333 202 356C168.667 354.667 140 352 116 348C92 342.667 74 337.333 62 332C40.6667 324 24.6667 313.333 14 300C4.66667 286.667 2.71201e-06 269.333 2.71201e-06 248C2.71201e-06 225.333 7.33334 204 22 184C36.6667 164 59.3333 154 90 154C102 154 112.667 156.667 122 162C132.667 166 142.667 171.333 152 178C161.333 186 170 194 178 202C187.333 210 196 218 204 226C226.667 254 247.333 276.667 266 294C284.667 311.333 301.333 320.667 316 322C320 323.333 322.667 322.667 324 320C325.333 317.333 325.333 314 324 310C322.667 308.667 318.667 298 312 278C305.333 258 298 235.333 290 210C282 186 274.667 162.667 268 140C262.667 116 260 99.3332 260 90C260 58 266.667 35.3333 280 21.9999C294.667 7.33324 319.333 -8.01086e-05 354 -8.01086e-05C387.333 -8.01086e-05 411.333 7.33324 426 21.9999C440.667 35.3333 448 58 448 90C448 99.3332 444.667 116 438 140C431.333 162.667 424 186 416 210C408 235.333 400.667 258 394 278C387.333 298 384 308.667 384 310C381.333 314 380.667 317.333 382 320C384.667 322.667 388 323.333 392 322C405.333 320.667 421.333 311.333 440 294C458.667 276.667 480 254 504 226C510.667 218 518 210 526 202C535.333 194 544.667 186 554 178C563.333 171.333 573.333 166 584 162C594.667 156.667 606 154 618 154C647.333 154 669.333 164 684 184C700 204 708 225.333 708 248C708 269.333 702.667 286.667 692 300C681.333 313.333 666 324 646 332C634 337.333 615.333 342.667 590 348C566 352 538 354.667 506 356C486 357.333 464 359.333 440 362C417.333 364.667 406 369.333 406 376C406 384 417.333 389.333 440 392C464 394.667 486 396 506 396C538 398.667 566 402.667 590 408C615.333 412 634 416 646 420C666 428 681.333 439.333 692 454C702.667 467.333 708 484 708 504C708 528 700 550 684 570C669.333 588.667 647.333 598 618 598C606 598 594.667 596 584 592C573.333 588 563.333 582 554 574C544.667 567.333 535.333 560 526 552C518 542.667 510.667 534 504 526C480 498 458.667 476 440 460C421.333 442.667 405.333 432.667 392 430C388 430 384.667 431.333 382 434C380.667 435.333 381.333 438 384 442C384 444.667 387.333 456 394 476C400.667 496 408 518.667 416 544C424 568 431.333 592 438 616C444.667 638.667 448 654 448 662C448 695.333 440.667 718.667 426 732C411.333 745.333 387.333 752 354 752C319.333 752 294.667 745.333 280 732C266.667 718.667 260 695.333 260 662C260 654 262.667 638.667 268 616C274.667 592 282 568 290 544C298 518.667 305.333 496 312 476C318.667 456 322.667 444.667 324 442C325.333 438 325.333 435.333 324 434C322.667 431.333 320 430 316 430C301.333 432.667 284.667 442.667 266 460C247.333 476 226.667 498 204 526C196 534 187.333 542.667 178 552C170 560 161.333 567.333 152 574C142.667 582 132.667 588 122 592C112.667 596 102 598 90 598C59.3333 598 36.6667 588.667 22 570C7.33334 550 2.71201e-06 528 2.71201e-06 504C2.71201e-06 484 4.66667 467.333 14 454C24.6667 439.333 40.6667 428 62 420C74 416 92 412 116 408C140 402.667 168.667 398.667 202 396C222 396 243.333 394.667 266 392C290 389.333 302 384 302 376Z" fill="#DDD9D0" fill-opacity="0.5"/>
</svg>
